<?xml version="1.0" encoding="utf-8"?>
<!-- Generator: Adobe Illustrator 25.3.1, SVG Export Plug-In . SVG Version: 6.00 Build 0)  -->
<svg version="1.1" id="Layer_1" xmlns="http://www.w3.org/2000/svg" xmlns:xlink="http://www.w3.org/1999/xlink" x="0px" y="0px"
	 viewBox="0 0 469.7 469.8" style="enable-background:new 0 0 469.7 469.8;" xml:space="preserve">
<style type="text/css">
	.st0{fill:#143B19;}
</style>
<g>
	<path class="st0" d="M368.7,63.1c5.2,22.5-15.3,63.3-72.5,58.2c-57.7-5.1-13.7-50.9-1.8-60.7C317.7,40.2,363.5,40.6,368.7,63.1z"/>
	<path class="st0" d="M335.8,207.7c23.3,21.4,59.1,29,75.1,58.1c14,25.4,12.5,55.8,0.2,81.6c-13.4,28.1-36.5,46-63.5,60.1
		c-57.3,29.8-128.5,39.2-191,21.3c-22.6-6.5-43.8-17.4-61.3-33.2C67,370.2,50.5,327.7,50.5,281.9c0-48.6,17.2-87,51.7-116.4
		c33.8-28.8,73.2-46.9,117.8-43.1C291.9,128.3,298.6,172.7,335.8,207.7z M174,200.6c-24,41.1-33.8,95.7-12.4,140
		c6.6,13.7,16.2,25.7,28.3,34.9c21.2,16.1,51.4,25.3,76.7,12.4c23.2-11.8,40.3-38.1,42.4-64c1.9-23.4-5.7-45.6-17.1-65.7
		c-7.3-12.9-14.5-25.7-21.8-38.6c-12.1-21.3-23-47.7-51.5-48.8C198.2,170.2,183.7,184,174,200.6z"/>
</g>
</svg>
